<?xml version="1.0" encoding="utf-8"?>
<!-- Generator: Adobe Illustrator 25.4.8, SVG Export Plug-In . SVG Version: 6.00 Build 0)  -->
<svg version="1.1" id="Ebene_1" xmlns="http://www.w3.org/2000/svg" xmlns:xlink="http://www.w3.org/1999/xlink" x="0px" y="0px"
	 viewBox="0 0 700 700" style="enable-background:new 0 0 700 700;" xml:space="preserve">
<g>
	<path d="M622.99,142.49H486.92l-13.23-39.7C465.35,77.79,442.05,61,415.7,61H284.3c-26.35,0-49.65,16.79-57.98,41.79l-13.23,39.7
		h-32.85v-33.95c0-26.25-21.28-47.53-47.53-47.53h-27.16C79.28,61,58,82.28,58,108.53v36.41c-32.01,8.43-55.68,37.62-55.68,72.24
		V570.3c0,41.25,33.44,74.7,74.7,74.7h545.97c41.25,0,74.7-33.44,74.7-74.7V217.19C697.68,175.93,664.24,142.49,622.99,142.49z
		 M98.74,108.53c0-3.75,3.04-6.79,6.79-6.79h27.16c3.75,0,6.79,3.04,6.79,6.79v33.95H98.74V108.53z M656.94,570.3
		c0,18.75-15.2,33.95-33.95,33.95H77.01c-18.75,0-33.95-15.2-33.95-33.95V217.19c0-18.75,15.2-33.95,33.95-33.95h150.75
		c8.77,0,16.55-5.61,19.33-13.93l17.88-53.63c2.78-8.33,10.54-13.93,19.33-13.93H415.7c8.78,0,16.55,5.6,19.33,13.93l17.88,53.63
		c2.77,8.32,10.56,13.93,19.33,13.93h150.75c18.75,0,33.95,15.2,33.95,33.95V570.3z"/>
	<circle cx="594.47" cy="244.35" r="20.37"/>
	<path d="M146.28,223.98l-40.26,0c-10.64,0-19.86,7.95-20.78,18.55c-1.05,12.07,8.44,22.2,20.29,22.2l40.26,0
		c10.64,0,19.86-7.95,20.78-18.55C167.62,234.1,158.13,223.98,146.28,223.98z"/>
	<g>
		<path d="M384.97,560.26c-128.23,23.84-238.91-86.84-215.07-215.07c13.67-73.55,71.57-131.45,145.12-145.12
			c128.23-23.84,238.91,86.84,215.07,215.07C516.42,488.68,458.52,546.58,384.97,560.26z M381.25,240.9
			c-102.79-21.96-192.48,67.72-170.51,170.51c11.54,54,54.02,96.48,108.01,108.01c102.79,21.96,192.48-67.72,170.51-170.51
			C477.73,294.91,435.25,252.44,381.25,240.9z"/>
	</g>
	<g>
		<path d="M354.78,481.91c-59.93,2.76-109.29-46.6-106.53-106.53c2.4-52.25,44.72-94.57,96.97-96.97
			c59.93-2.76,109.29,46.6,106.53,106.53C449.35,437.2,407.03,479.51,354.78,481.91z M370.15,322.29
			c-49.04-15.85-93.88,28.98-78.03,78.03c5.77,17.84,19.88,31.95,37.72,37.72c49.04,15.85,93.88-28.98,78.03-78.03
			C402.1,342.17,387.99,328.06,370.15,322.29z"/>
	</g>
</g>
</svg>
