<?xml version="1.0" encoding="utf-8"?>
<!-- Generator: Adobe Illustrator 25.4.8, SVG Export Plug-In . SVG Version: 6.00 Build 0)  -->
<svg version="1.1" id="Ebene_1" xmlns="http://www.w3.org/2000/svg" xmlns:xlink="http://www.w3.org/1999/xlink" x="0px" y="0px"
	 viewBox="0 0 700 700" style="enable-background:new 0 0 700 700;" xml:space="preserve">
<g>
	<g>
		<path d="M350.68,0c-193.44,0-350,156.54-350,350c0,193.44,156.54,350,350,350c193.44,0,350-156.54,350-350
			C700.68,156.56,544.14,0,350.68,0z M350.68,651.16c-166.06,0-301.16-135.1-301.16-301.16S184.62,48.84,350.68,48.84
			c166.06,0,301.16,135.1,301.16,301.16S516.74,651.16,350.68,651.16z"/>
	</g>
</g>
<g>
	<g>
		<path d="M340.32,442.86c-19.35,0-35.01,16.12-35.01,35.47c0,18.89,15.2,35.48,35.01,35.48c19.81,0,35.47-16.59,35.47-35.48
			C375.8,458.99,359.67,442.86,340.32,442.86z"/>
	</g>
</g>
<g>
	<g>
		<path d="M346.31,174.27c-62.2,0-90.76,36.86-90.76,61.74c0,17.97,15.2,26.26,27.64,26.26c24.88,0,14.74-35.48,61.74-35.48
			c23.03,0,41.46,10.14,41.46,31.33c0,24.88-25.8,39.16-41,52.06c-13.36,11.52-30.87,30.41-30.87,70.03
			c0,23.96,6.45,30.87,25.34,30.87c22.57,0,27.18-10.13,27.18-18.89c0-23.96,0.46-37.78,25.8-57.59c12.44-9.67,51.6-41,51.6-84.31
			S405.28,174.27,346.31,174.27z"/>
	</g>
</g>
</svg>
