<?xml version="1.0" encoding="utf-8"?>
<!-- Generator: Adobe Illustrator 25.4.8, SVG Export Plug-In . SVG Version: 6.00 Build 0)  -->
<svg version="1.1" id="Ebene_1" xmlns="http://www.w3.org/2000/svg" xmlns:xlink="http://www.w3.org/1999/xlink" x="0px" y="0px"
	 viewBox="0 0 700 700" style="enable-background:new 0 0 700 700;" xml:space="preserve">
<style type="text/css">
	.st0{fill:#FFFFFF;}
</style>
<g>
	<path class="st0" d="M357.34,478.36c-13.77,7.96-30.12,10.12-45.47,5.99c-15.35-4.13-28.44-14.21-36.4-28.03L114.06,175.42
		c-7.47-13.8-9.28-29.99-5.04-45.11c4.24-15.12,14.2-27.98,27.75-35.82c13.55-7.85,29.61-10.06,44.76-6.17
		c15.15,3.89,28.19,13.58,36.33,26.99L379.24,396.2c7.91,13.82,10.04,30.23,5.94,45.62C381.08,457.22,371.07,470.36,357.34,478.36
		L357.34,478.36z M147.75,113.74c-8.34,4.85-14.43,12.83-16.93,22.18c-2.5,9.35-1.19,19.32,3.62,27.71l161.38,280.89
		c2.39,4.15,5.57,7.8,9.35,10.71c3.79,2.92,8.11,5.06,12.72,6.3c4.61,1.24,9.42,1.56,14.16,0.93c4.73-0.62,9.3-2.18,13.43-4.58
		c4.13-2.4,7.76-5.59,10.67-9.4c2.91-3.8,5.04-8.15,6.27-12.78c1.24-4.63,1.55-9.47,0.93-14.22c-0.62-4.76-2.17-9.34-4.56-13.5
		L197.41,127.11c-4.83-8.38-12.77-14.49-22.08-17C166.02,107.6,156.1,108.91,147.75,113.74L147.75,113.74z"/>
	<path class="st0" d="M499.52,395.85c-13.77,7.96-30.12,10.11-45.47,5.98c-15.35-4.13-28.44-14.21-36.4-28.02l-79.87-139.13
		c-4.16-6.86-6.92-14.48-8.1-22.42c-1.18-7.94-0.77-16.04,1.2-23.82c1.98-7.78,5.49-15.09,10.32-21.48
		c4.83-6.4,10.89-11.76,17.81-15.77c6.93-4.01,14.58-6.59,22.51-7.58c7.93-0.99,15.98-0.38,23.68,1.8
		c7.69,2.18,14.88,5.88,21.12,10.89c6.25,5.01,11.43,11.23,15.25,18.28l79.95,139.13c7.89,13.84,10,30.25,5.88,45.65
		C523.28,374.73,513.25,387.86,499.52,395.85L499.52,395.85z M371.5,172.94c-8.34,4.85-14.43,12.83-16.93,22.18
		c-2.5,9.35-1.19,19.32,3.62,27.71l79.95,139.13c4.98,8.04,12.87,13.83,22.02,16.14c9.15,2.31,18.82,0.95,27-3.77
		c8.17-4.73,14.19-12.46,16.8-21.56c2.6-9.11,1.59-18.87-2.84-27.23L421.17,186.4c-4.82-8.39-12.75-14.52-22.06-17.04
		C389.79,166.84,379.87,168.13,371.5,172.94L371.5,172.94z"/>
	<path class="st0" d="M338.14,114.96c-10.27,5.95-22.06,8.71-33.88,7.93s-23.16-5.07-32.56-12.32c-9.4-7.25-16.45-17.14-20.26-28.41
		s-4.2-23.43-1.14-34.94c3.07-11.5,9.46-21.83,18.37-29.68s19.94-12.87,31.69-14.43c11.75-1.55,23.7,0.43,34.33,5.69
		c10.63,5.27,19.47,13.58,25.39,23.89c7.92,13.84,10.06,30.26,5.95,45.68C361.92,93.81,351.89,106.96,338.14,114.96L338.14,114.96z
		 M290,31.16c-6.22,3.62-11.24,9.01-14.41,15.49c-3.17,6.48-4.36,13.76-3.42,20.92c0.94,7.16,3.98,13.88,8.72,19.3
		c4.74,5.43,10.98,9.32,17.93,11.18c6.94,1.87,14.28,1.62,21.09-0.7c6.81-2.32,12.77-6.62,17.15-12.35
		c4.38-5.73,6.96-12.64,7.43-19.84c0.47-7.21-1.2-14.39-4.79-20.65c-4.83-8.38-12.78-14.49-22.09-16.99
		c-9.31-2.5-19.23-1.19-27.58,3.65L290,31.16z"/>
	<path class="st0" d="M555.08,419.08c-8.34-4.57-17.69-6.97-27.18-6.99c-9.5-0.02-18.85,2.34-27.21,6.86
		c-0.53,0.29-1.05,0.56-1.56,0.87c-10.87,6.26-19.53,15.76-24.79,27.18c-12.48-1.1-24.99,1.68-35.84,7.98
		c-10.85,6.29-19.5,15.79-24.79,27.2c-12.48-1.15-25,1.63-35.83,7.96c-1.45,0.84-2.85,1.82-4.22,2.68
		c-7.53,5.22-13.66,12.22-17.86,20.39c-4.2,8.16-6.33,17.24-6.22,26.43c0.01,9.69,2.37,19.23,6.86,27.79
		c4.49,8.57,10.99,15.91,18.94,21.4l7.25,5.01c0.54,0.38,1.12,0.75,1.69,1.11c0.56,0.36,0.83,0.62,1.29,0.93L448.17,639
		c9.78,6.69,21.24,10.48,33.07,10.93c11.82,0.46,23.54-2.44,33.81-8.35l46.82-27.16c10.29-6,18.67-14.8,24.19-25.39
		c5.52-10.59,7.94-22.53,6.99-34.43l-7.53-88.85c-0.8-9.71-4-19.06-9.32-27.21C570.87,430.38,563.61,423.7,555.08,419.08
		L555.08,419.08z M461.44,619.5l-62.5-43.05l-0.56-0.42l-1.16-0.82c-0.42-0.25-0.82-0.53-1.23-0.82l-7.25-5.01
		c-4.79-3.33-8.71-7.77-11.42-12.95c-2.71-5.18-4.12-10.94-4.12-16.8c-0.1-5.35,1.12-10.65,3.55-15.41
		c2.43-4.77,5.98-8.86,10.36-11.91c0.85-0.56,1.72-1.13,2.61-1.66c4.29-2.49,9.03-4.1,13.94-4.72s9.9-0.26,14.67,1.08l5.19,1.44
		l78.98,113.14c-6.37,3.48-13.58,5.13-20.82,4.76C474.43,625.99,467.43,623.61,461.44,619.5z M432.1,501.09l0.63-2.53
		c1.25-4.82,3.44-9.33,6.44-13.29c3-3.96,6.76-7.28,11.04-9.77c4.29-2.48,9.03-4.09,13.94-4.72c4.91-0.63,9.9-0.28,14.67,1.05
		l2.5,0.69l58.86,127.14l-27.94,16.21L432.1,501.09z M561.95,467.66l7.54,88.87c0.61,7.44-0.9,14.9-4.34,21.53
		c-3.44,6.62-8.67,12.13-15.09,15.89l-58.02-125.32l1.36-5.23c1.23-4.82,3.41-9.35,6.42-13.3c3-3.96,6.76-7.27,11.06-9.74l0.96-0.55
		c4.91-2.69,10.42-4.09,16.02-4.07c5.59,0.02,11.09,1.47,15.99,4.19c5.08,2.73,9.41,6.7,12.58,11.54c3.17,4.84,5.09,10.4,5.58,16.17
		L561.95,467.66z"/>
	<path class="st0" d="M527.53,660.14l43.66-25.39c1.83-1.06,3.92-1.58,6.03-1.52c2.11,0.07,4.16,0.73,5.92,1.91
		c1.76,1.18,3.15,2.83,4.02,4.76c0.88,1.94,1.19,4.08,0.92,6.18l-5.44,41.34c-0.22,1.74-0.83,3.41-1.79,4.87
		c-0.97,1.46-2.25,2.68-3.76,3.56c-1.51,0.88-3.2,1.4-4.94,1.52c-1.75,0.12-3.49-0.17-5.1-0.84l-38.32-16.01
		c-1.95-0.82-3.63-2.18-4.85-3.91s-1.94-3.77-2.06-5.89c-0.13-2.12,0.34-4.24,1.35-6.1C524.18,662.74,525.69,661.19,527.53,660.14
		L527.53,660.14z"/>
</g>
</svg>
